<!--?xml version="1.0" standalone="no"?-->
              <svg id="sw-js-blob-svg" viewBox="0 0 100 100" xmlns="http://www.w3.org/2000/svg" version="1.1">
                    <defs> 
                        <linearGradient id="sw-gradient" x1="0" x2="1" y1="1" y2="0">
                            <stop id="stop1" stop-color="rgba(255, 255, 255, 1)" offset="0%"></stop>
                            <stop id="stop2" stop-color="rgba(255, 255, 255, 1)" offset="100%"></stop>
                        </linearGradient>
                    </defs>
                <path fill="none" d="M18.5,-34.2C23.4,-29.3,26.2,-23.1,25.2,-17.1C24.2,-11.2,19.3,-5.6,15.3,-2.3C11.3,1,8.1,1.9,9.9,9.1C11.6,16.3,18.2,29.6,17.4,31.7C16.5,33.7,8.3,24.4,3.1,19C-2.1,13.7,-4.2,12.3,-10.2,13.3C-16.2,14.2,-26.1,17.5,-25.1,15.7C-24.1,13.9,-12.1,6.9,-6.5,3.2C-0.9,-0.5,-1.6,-0.9,-4.2,-5.5C-6.8,-10,-11.3,-18.6,-10.9,-26C-10.5,-33.4,-5.2,-39.7,0.8,-41C6.8,-42.4,13.7,-39,18.5,-34.2Z" width="100%" height="100%" transform="translate(50 50)" stroke-width="1" style="transition: all 0.3s ease 0s;" stroke="url(#sw-gradient)"></path>
              </svg>